<svg viewBox="0 0 100 200" xmlns="http://www.w3.org/2000/svg" preserveAspectRatio="xMidYMid meet">
  <defs>
    <radialGradient id="amberGlow" cx="50%" cy="50%" r="50%">
      <stop offset="0%" style="stop-color:#F0D89B;stop-opacity:0.6" />
      <stop offset="100%" style="stop-color:#D4A574;stop-opacity:0" />
    </radialGradient>
  </defs>
  
  <!-- Amber glow -->
  <circle cx="50" cy="80" r="45" fill="url(#amberGlow)"/>
  
  <!-- Main feather spine -->
  <path d="M 50 10 Q 48 50, 50 100 Q 52 150, 50 190" stroke="#3A8A88" stroke-width="2.5" fill="none" stroke-linecap="round"/>
  
  <!-- Left feather -->
  <path d="M 50 20 Q 35 28, 28 25" stroke="#3A8A88" stroke-width="2" fill="none" stroke-linecap="round"/>
  <path d="M 50 35 Q 32 42, 24 38" stroke="#3A8A88" stroke-width="1.8" fill="none" stroke-linecap="round"/>
  <path d="M 50 50 Q 30 56, 20 52" stroke="#3A8A88" stroke-width="1.6" fill="none" stroke-linecap="round"/>
  <path d="M 50 65 Q 32 70, 22 68" stroke="#3A8A88" stroke-width="1.4" fill="none" stroke-linecap="round"/>
  <path d="M 50 80 Q 35 85, 25 83" stroke="#3A8A88" stroke-width="1.2" fill="none" stroke-linecap="round"/>
  <path d="M 50 95 Q 32 100, 23 100" stroke="#3A8A88" stroke-width="1.2" fill="none" stroke-linecap="round"/>
  <path d="M 50 110 Q 30 115, 20 117" stroke="#3A8A88" stroke-width="1.2" fill="none" stroke-linecap="round"/>
  
  <!-- Right feather -->
  <path d="M 50 20 Q 65 28, 72 25" stroke="#3A8A88" stroke-width="2" fill="none" stroke-linecap="round"/>
  <path d="M 50 35 Q 68 42, 76 38" stroke="#3A8A88" stroke-width="1.8" fill="none" stroke-linecap="round"/>
  <path d="M 50 50 Q 70 56, 80 52" stroke="#3A8A88" stroke-width="1.6" fill="none" stroke-linecap="round"/>
  <path d="M 50 65 Q 68 70, 78 68" stroke="#3A8A88" stroke-width="1.4" fill="none" stroke-linecap="round"/>
  <path d="M 50 80 Q 65 85, 75 83" stroke="#3A8A88" stroke-width="1.2" fill="none" stroke-linecap="round"/>
  <path d="M 50 95 Q 68 100, 77 100" stroke="#3A8A88" stroke-width="1.2" fill="none" stroke-linecap="round"/>
  <path d="M 50 110 Q 70 115, 80 117" stroke="#3A8A88" stroke-width="1.2" fill="none" stroke-linecap="round"/>
</svg>
